<svg version="1.1" xmlns="http://www.w3.org/2000/svg" xmlns:xlink="http://www.w3.org/1999/xlink" width="88.30063" height="97.61856" viewBox="0,0,88.30063,97.61856"><defs><radialGradient cx="254.80488" cy="163.43975" r="1.24664" gradientUnits="userSpaceOnUse" id="color-1"><stop offset="0" stop-color="#ffffff"/><stop offset="1" stop-color="#ffffff" stop-opacity="0"/></radialGradient></defs><g transform="translate(-189.58258,-132.72301)"><g data-paper-data="{&quot;isPaintingLayer&quot;:true}" stroke-miterlimit="10" stroke-dasharray="" stroke-dashoffset="0" style="mix-blend-mode: normal"><path d="M244.47014,138.05586c4.57412,-3.30397 17.70584,1.27433 24.69795,10.95443c6.99212,9.6801 8.95229,20.20577 4.37818,23.50974c-4.57412,3.30397 -11.79822,-6.53272 -18.79033,-16.21283c-6.99212,-9.6801 -14.85991,-14.94737 -10.2858,-18.25134z" data-paper-data="{&quot;index&quot;:null}" fill="#543123" fill-rule="nonzero" stroke="#001026" stroke-width="1.2" stroke-linecap="butt" stroke-linejoin="miter"/><g data-paper-data="{&quot;index&quot;:null}" fill="#543123" fill-rule="evenodd" stroke="#001026" stroke-width="1.2" stroke-linecap="round" stroke-linejoin="round"><path d="M211.77696,203.66241c-2.4299,0.32494 -5.3802,0.91289 -7.93317,2.93337c-5.84031,4.48897 -8.12224,12.44464 -11.76024,10.07505c-3.73773,-2.37683 -2.68963,-15.43522 9.76794,-18.5415c4.29033,-1.09226 8.08037,-0.81716 11.16499,-0.493c0.7979,0.05792 7.62912,1.25561 9.77668,4.82044c2.14756,3.56483 0.38687,4.33939 -0.44,4.68042c-0.93383,0.43353 -7.14168,-3.82706 -10.5762,-3.47478z"/></g><path d="M229.7,211.5c-1.8,1.2 -8,5.6 -15.9,8.1l-0.4,0.1c-0.4,0.1 -0.6,0.6 -0.4,1c1.7,2.4 4.8,7.2 -0.7,8.9c-5.3,1.7 -15.2,-12.4 -11,-16.1c1.9,-1.4 3.6,-0.7 4.5,-0.3c0.5,0.2 1,0.2 1.5,0.1c1.2,-0.4 3.4,-1.2 5.1,-2.1c4.3,-2.2 5.3,-3.1 7.3,-4.6c2,-1.5 6.6,-5.2 10.3,-2c3.2,2.7 1.4,5.7 -0.3,6.9z" fill="#543123" fill-rule="evenodd" stroke="#001026" stroke-width="1.2" stroke-linecap="round" stroke-linejoin="round"/><path d="M245.6,190.7c0.5,0.4 6.6,7.6 8.6,5.8c2.4,-2.1 5.7,-6.2 9.3,-2.9c3.6,3.3 -3.2,8.9 -6.1,10.4c-6.9,3.1 -12.5,-2.8 -13.7,-4.4c-1.2,-1.6 -3.3,-4.3 -3.3,-6.9c0.1,-2.8 3.5,-3.5 5.2,-2z" fill="#543123" fill-rule="evenodd" stroke="#001026" stroke-width="1.2" stroke-linecap="round" stroke-linejoin="round"/><path d="M245.7,214c2.1,1.9 6.7,5.8 6.7,5.8c0,0 14.3,-2.5 14.3,4.7c0,4.3 -7.2,5.3 -16.9,4.4c-0.6,-0.1 -1.2,-0.3 -1.7,-0.7c-2.2,-1.9 -8.5,-7.5 -12.5,-11.4c-5.9,-5.8 -10.8,-9.6 -10.8,-9.6c-8.5,-8.3 -1.6,-11.8 1.1,-16.6c2.5,-4.1 3.6,-3.3 9.6,-2.1c3.4,0.5 5.4,0.8 7.6,0.7c3.3,-0.1 2.7,4.7 1.8,7.2c0,0 -1.4,3.7 -2.7,5.6c-1.6,2.3 -2.8,3.8 -4,4.7z" fill="#543123" fill-rule="evenodd" stroke="#001026" stroke-width="1.2" stroke-linecap="round" stroke-linejoin="round"/><path d="M237.90571,205.30205c0,0 -1.5,-1.2 -3.1,-2.7c-2,-1.8 -4,-3.3 -2,-6.4c1.8,-2.4 3.5,-5.6 8,-2.7c4.3,2.7 2.4,5.2 2.4,5.2c-2.2,4.5 -5.3,6.6 -5.3,6.6z" fill="#ffffff" fill-rule="evenodd" stroke="none" stroke-width="1" stroke-linecap="butt" stroke-linejoin="miter"/><path d="M222.2,198.4c2.2,2.8 5.6,6.3 1.3,9.2c-5.9,3.3 -10.8,-6.7 -11.8,-10.2c-0.9,-3.1 1.7,-5.1 3.9,-6.8c4.3,-3.1 7.9,-5.9 11.9,-4.4c5,1.8 1.4,5.8 -1.1,7.6c-1.5,1.1 -3,2.3 -4.1,3c-0.3,0.5 -0.4,1.1 -0.1,1.6z" fill="#543123" fill-rule="evenodd" stroke="#001026" stroke-width="1.2" stroke-linecap="round" stroke-linejoin="round"/><g fill-rule="evenodd"><path d="M268.8,160c0,0 7.1,2.1 8.3,7.8c1.2,5.7 -3.2,16.5 -22,20.2c-18.8,3.7 -33.9,-1.4 -41,-12.8c-7.1,-11.4 4.1,-25 3.5,-24.2c0,0 -3.59547,-18.77495 20.67111,-17.56889c30.93126,-2.08088 30.52889,26.56889 30.52889,26.56889z" fill="#543123" stroke="#001026" stroke-width="1.2" stroke-linecap="butt" stroke-linejoin="miter"/><path d="M268.5,160.4c0,0 6.9,1.8 8.1,7.5c1.2,5.7 -3.6,16 -22.2,19.6c-24.2,5 -35.7,-9.4 -29,-20c6.7,-10.7 18.2,-1.6 26.6,-2.2c7.2,-0.5 8,-6.8 16.5,-4.9z" fill="#ffffff" stroke="none" stroke-width="1" stroke-linecap="butt" stroke-linejoin="miter"/><path d="M237,171.1c0,-0.4 0.4,-0.7 0.8,-0.6c1.9,0.7 7.3,2.3 13.3,2.7c5.4,0.3 8.6,0 10.1,-0.3c0.5,-0.1 0.9,0.4 0.7,0.9c-0.9,2.7 -4.7,10.2 -15.2,9.6c-9.1,-1 -10,-7.4 -9.7,-12.3z" fill="#ffffff" stroke="#001026" stroke-width="1.2" stroke-linecap="round" stroke-linejoin="round"/><path d="M251.6,163.36667c2.1,0 4.3,-0.46667 4.4,0.23333c0.1,1.4 -1.4,4.2 -3,4.3c-1.8,0.2 -6,-2.3 -6,-3.9c-0.1,-1.2 2.6,-0.63333 4.6,-0.63333z" fill="#001026" stroke="#001026" stroke-width="1.2" stroke-linecap="round" stroke-linejoin="round"/><g><path d="M263.4,151c2.9,4.5 3,9.6 0.2,11.4c-2.8,1.8 -7.4,-0.3 -10.4,-4.8c-2.9,-4.5 -3,-9.6 -0.2,-11.4c2.8,-1.9 7.5,0.3 10.4,4.8z" fill="#ffffff" stroke="#001026" stroke-width="1.2" stroke-linecap="round" stroke-linejoin="round"/><path d="M263,156.7c0,1.1 -0.8,2 -1.8,2c-1,0 -1.8,-0.9 -1.8,-2c0,-1.1 0.8,-2 1.8,-2c1,0 1.8,0.9 1.8,2" fill="#001026" stroke="none" stroke-width="1" stroke-linecap="butt" stroke-linejoin="miter"/></g><g><path d="M238.6,153.8c3,4.4 2.8,9.8 0.1,11.7c-3.3,1.9 -7.7,0.5 -10.7,-3.9c-3.1,-4.4 -3.3,-10.1 -0.2,-12.3c3.1,-2.3 7.8,0.1 10.8,4.5z" fill="#ffffff" stroke="#001026" stroke-width="1.2" stroke-linecap="round" stroke-linejoin="round"/><path d="M238,159.6c0,1.1 -0.8,2 -1.8,2c-1,0 -1.8,-0.9 -1.8,-2c0,-1.1 0.8,-2 1.8,-2c1,0.1 1.8,0.9 1.8,2" fill="#001026" stroke="none" stroke-width="1" stroke-linecap="butt" stroke-linejoin="miter"/></g></g><path d="M219.96954,157.06095c-7.0054,9.67049 -14.243,19.49725 -18.81258,16.18701c-4.56958,-3.31025 -2.59494,-13.83321 4.41046,-23.5037c7.0054,-9.67049 20.1434,-14.23075 24.71298,-10.92051c3.31719,2.40301 -1.92361,5.16496 -6.62909,10.56324c-1.77651,2.03807 -1.7618,5.02357 -3.68177,7.67396z" fill="#543123" fill-rule="nonzero" stroke="#001026" stroke-width="1.2" stroke-linecap="butt" stroke-linejoin="miter"/><path d="M226.47267,144.718l-1.43993,-7.70298l6.61303,-0.86069l2.43339,-1.16473l2.40739,7.85648c0,0 -3.6583,-0.27938 -5.39534,0.04533c-1.58741,0.29674 -4.61854,1.82658 -4.61854,1.82658z" fill="#543123" fill-rule="nonzero" stroke="none" stroke-width="0" stroke-linecap="butt" stroke-linejoin="miter"/><path d="M227.92272,168.76208c0,-0.34518 0.27982,-0.625 0.625,-0.625c0.34518,0 0.625,0.27982 0.625,0.625c0,0.34518 -0.27982,0.625 -0.625,0.625c-0.34518,0 -0.625,-0.27982 -0.625,-0.625z" fill="#001026" fill-rule="nonzero" stroke="none" stroke-width="0.5" stroke-linecap="butt" stroke-linejoin="miter"/><path d="M224.59224,173.65984c0,-0.34518 0.27982,-0.625 0.625,-0.625c0.34518,0 0.625,0.27982 0.625,0.625c0,0.34518 -0.27982,0.625 -0.625,0.625c-0.34518,0 -0.625,-0.27982 -0.625,-0.625z" fill="#001026" fill-rule="nonzero" stroke="none" stroke-width="0.5" stroke-linecap="butt" stroke-linejoin="miter"/><path d="M231.05728,173.46392c0,-0.34518 0.27982,-0.625 0.625,-0.625c0.34518,0 0.625,0.27982 0.625,0.625c0,0.34518 -0.27982,0.625 -0.625,0.625c-0.34518,0 -0.625,-0.27982 -0.625,-0.625z" fill="#001026" fill-rule="nonzero" stroke="none" stroke-width="0.5" stroke-linecap="butt" stroke-linejoin="miter"/><path d="M269.06387,166.21525c0,-0.34518 0.27982,-0.625 0.625,-0.625c0.34518,0 0.625,0.27982 0.625,0.625c0,0.34518 -0.27982,0.625 -0.625,0.625c-0.34518,0 -0.625,-0.27982 -0.625,-0.625z" fill="#001026" fill-rule="nonzero" stroke="none" stroke-width="0.5" stroke-linecap="butt" stroke-linejoin="miter"/><path d="M265.53749,172.48437c0,-0.34518 0.27982,-0.625 0.625,-0.625c0.34518,0 0.625,0.27982 0.625,0.625c0,0.34518 -0.27982,0.625 -0.625,0.625c-0.34518,0 -0.625,-0.27982 -0.625,-0.625z" fill="#001026" fill-rule="nonzero" stroke="none" stroke-width="0.5" stroke-linecap="butt" stroke-linejoin="miter"/><path d="M272.78617,172.09255c0,-0.34518 0.27982,-0.625 0.625,-0.625c0.34518,0 0.625,0.27982 0.625,0.625c0,0.34518 -0.27982,0.625 -0.625,0.625c-0.34518,0 -0.625,-0.27982 -0.625,-0.625z" fill="#001026" fill-rule="nonzero" stroke="none" stroke-width="0.5" stroke-linecap="butt" stroke-linejoin="miter"/><path d="M238.42369,204.37037c0,0.625 -0.625,0.625 -0.625,0.625l0.11525,-0.0447c-0.94265,0.36066 -2.50003,0.86869 -3.23022,-0.15549c-0.23288,-0.32664 0.45833,-1.12952 0.06374,-1.20177c-0.63166,-0.11565 -1.53695,0.98161 -2.41602,0.16709c-0.72207,-0.66905 0.35022,-3.10143 0.20688,-2.86678c-0.89977,0.0145 -2.20941,0.31329 -2.48888,-1.00483c-0.12993,-0.61282 1.14745,-2.09034 1.83127,-2.47047c-0.8205,-0.25269 -2.54079,-0.97384 -2.15385,-2.12954c0.36498,-1.0901 2.88496,-0.79624 4.18268,-0.12631c-0.57772,-1.2206 -1.4838,-3.06339 -0.76002,-3.73901c1.1018,-1.02849 2.90191,0.84183 3.97495,1.94162c0.18301,-0.57998 0.31564,-1.15337 0.45949,-1.73341h-0.05965v-0.70121c0,-0.34518 0.27982,-0.625 0.625,-0.625c0.19953,0 0.37722,0.0935 0.49165,0.23907l0.44772,0.55965c0.87139,0.87656 1.01927,2.12015 1.72657,2.91752c0.44822,0.50529 0.97473,-0.25374 1.48755,-1.0325l-0.17594,-0.07038l0.22833,-0.57082c0.08863,-0.23737 0.31743,-0.4064 0.58571,-0.4064c0.34518,0 0.625,0.27982 0.625,0.625c0,1.01286 0,2.72692 0,3.73978c0,0 0,0.625 -0.625,0.625c-0.625,0 -0.625,-0.625 -0.625,-0.625c0,-0.56342 0,-1.12683 0,-1.69026c-0.68974,0.46237 -1.65186,0.76516 -2.1578,0.46889c-0.50673,-0.29674 -0.95705,-1.41385 -1.42348,-2.28419c-0.17523,0.64471 -0.55137,1.36382 -0.70621,1.75092l-0.14798,0.18941c-0.01933,0.03139 -0.04221,0.06324 -0.06905,0.09545c-0.14897,0.17876 -0.30902,0.2355 -0.45127,0.23631c-0.13436,0.01145 -0.28922,-0.02572 -0.44514,-0.1698c-0.55444,-0.46446 -1.06252,-0.98175 -1.5918,-1.47474c-0.18205,-0.16958 -0.55975,-0.40815 -0.88001,-0.62167c0.43408,0.85939 0.93304,2.55716 1.04044,2.88154l-0.00632,0.05061l0.01624,-0.00271l0.11493,0.6896c0.00686,0.03707 0.01044,0.0753 0.01044,0.11436c0,0.34518 -0.27982,0.625 -0.625,0.625c-0.14951,0 -0.28676,-0.0525 -0.39432,-0.14007l-0.57799,-0.46239c-0.57947,-0.23105 -1.17077,-0.44984 -1.74238,-0.58294c-0.15822,-0.03684 -0.40707,-0.03882 -0.65205,-0.04132c0.80682,0.49957 1.97709,1.53147 1.85831,1.96113c-0.27209,0.98417 -4.13109,1.72544 -0.71073,1.76664c0.35281,0.21597 0.88898,0.27056 1.05844,0.64793c0.35992,0.80151 -1.48345,2.41195 -0.61782,2.56242c0.58975,0.10251 1.56901,-0.81676 2.25868,-0.30038c0.86581,0.64826 0.28319,1.00084 0.29747,1.60306c0.01361,0.5741 1.14988,-0.16424 1.67823,-0.38923l0.34899,-0.0447c0,0 0.625,0 0.625,0.625z" fill="#ffffff" fill-rule="nonzero" stroke="none" stroke-width="0.5" stroke-linecap="butt" stroke-linejoin="miter"/><path d="M231.23616,200.06898v-1.55754h1.90366v1.55754z" fill="#ffffff" fill-rule="nonzero" stroke="none" stroke-width="0" stroke-linecap="butt" stroke-linejoin="miter"/><path d="M232.70717,203.09753v-1.81714h2.07672v1.81714z" fill="#ffffff" fill-rule="nonzero" stroke="none" stroke-width="0" stroke-linecap="butt" stroke-linejoin="miter"/><path d="M235.56266,204.7416v-1.64407h1.03836v1.64407z" fill="#ffffff" fill-rule="nonzero" stroke="none" stroke-width="0" stroke-linecap="butt" stroke-linejoin="miter"/><path d="M231.49575,197.12695v-1.47101h2.07673v1.47101z" fill="#ffffff" fill-rule="nonzero" stroke="none" stroke-width="0" stroke-linecap="butt" stroke-linejoin="miter"/><path d="M234.09165,195.30982v-3.20162h1.47101v3.20162z" fill="#ffffff" fill-rule="nonzero" stroke="none" stroke-width="0" stroke-linecap="butt" stroke-linejoin="miter"/><path d="M205.36366,225.33577l0.43265,-1.90366" fill="none" fill-rule="nonzero" stroke="#001026" stroke-width="1.2" stroke-linecap="round" stroke-linejoin="miter"/><path d="M210.12281,227.41249l-0.17306,1.38448" fill="none" fill-rule="nonzero" stroke="#001026" stroke-width="1.2" stroke-linecap="round" stroke-linejoin="miter"/><path d="M213.75708,226.72025l0.77877,0.8653" fill="none" fill-rule="nonzero" stroke="#001026" stroke-width="1.2" stroke-linecap="round" stroke-linejoin="miter"/><path d="M255.205,228.71044l-0.95183,-0.8653" fill="none" fill-rule="nonzero" stroke="#001026" stroke-width="1.2" stroke-linecap="round" stroke-linejoin="miter"/><path d="M261.60823,227.84514l-1.03836,-0.95183" fill="none" fill-rule="nonzero" stroke="#001026" stroke-width="1.2" stroke-linecap="round" stroke-linejoin="miter"/><path d="M266.02126,226.02801l-1.29796,-1.12489" fill="none" fill-rule="nonzero" stroke="#001026" stroke-width="1.2" stroke-linecap="round" stroke-linejoin="miter"/><path d="M255.96753,163.87321c-0.02212,0.27526 -0.5979,0.45357 -1.28603,0.39827c-0.68814,-0.0553 -1.22805,-0.32326 -1.20593,-0.59852c0.02212,-0.27526 0.5979,-0.45357 1.28603,-0.39827c0.68814,0.0553 1.22805,0.32326 1.20593,0.59852z" fill="url(#color-1)" fill-rule="nonzero" stroke="none" stroke-width="0" stroke-linecap="butt" stroke-linejoin="miter"/><path d="M250.97155,172.60642l1.16667,-5.66667" fill="none" fill-rule="nonzero" stroke="#001026" stroke-width="1.2" stroke-linecap="round" stroke-linejoin="miter"/></g></g></svg>